<svg height="448pt" viewBox="0 0 448 448" width="448pt" xmlns="http://www.w3.org/2000/svg"><path d="m16 320h16v96h-16zm0 0"/><path d="m176 320h16v96h-16zm0 0"/><path d="m200 432h-200v16h240v-16zm0 0"/><path d="m112 320h16v96h-16zm0 0"/><path d="m80 320h16v96h-16zm0 0"/><path d="m48 320h16v96h-16zm0 0"/><path d="m208 320h16v96h-16zm0 0"/><path d="m144 320h16v96h-16zm0 0"/><path d="m424 0h-60.6875l66.34375 66.34375c.671875.679688 1.210938 1.472656 1.601562 2.34375.109376.25.175782.496094.261719.753906.230469.660156.367188 1.355469.410157 2.054688 0 .175781.101562.328125.101562.503906v320c-.027344 8.683594-2.914062 17.117188-8.207031 24h.175781c13.253906 0 24-10.746094 24-24v-368c0-13.253906-10.746094-24-24-24zm0 0"/><path d="m336 40v-40h-200c-13.253906 0-24 10.746094-24 24v202.121094l5.601562-1.753906c1.558594-.492188 3.238282-.492188 4.796876 0l128 40c3.335937 1.050781 5.601562 4.140624 5.601562 7.632812v40c0 4.417969-3.582031 8-8 8h-8v96h152c13.253906 0 24-10.746094 24-24v-312h-40c-22.082031-.027344-39.972656-17.917969-40-40zm-112 0h96v16h-96zm96 32v16h-32v-16zm-96 0h48v16h-48zm0 32h96v16h-96zm-64-64v-16h16v16h16v16h-32c-4.417969 0-8 3.582031-8 8s3.582031 8 8 8h16c13.253906 0 24 10.746094 24 24s-10.746094 24-24 24v16h-16v-16h-16v-16h32c4.417969 0 8-3.582031 8-8s-3.582031-8-8-8h-16c-13.253906 0-24-10.746094-24-24s10.746094-24 24-24zm232 360h-136v-16h136zm0-232h-72v24h72v16h-72v24h72v16h-72v24h72v16h-72v24h72v16h-72v24h72v16h-136v-16h48v-24h-32v-16h32v-24h-32v-16h32v-24h-72v-16h72v-24h-168v-16h168v-24h-168v-16h256zm0 0"/><path d="m40 304h200v-26.121094l-120-37.496094-120 37.496094v26.121094zm80-48c8.835938 0 16 7.164062 16 16s-7.164062 16-16 16-16-7.164062-16-16 7.164062-16 16-16zm0 0"/><path d="m376 64h28.6875l-52.6875-52.6875v28.6875c0 13.253906 10.746094 24 24 24zm0 0"/></svg>