<svg id="Capa_1" enable-background="new 0 0 512 512" height="512" viewBox="0 0 512 512" width="512" xmlns="http://www.w3.org/2000/svg"><g><path d="m201 180.509h-54.998c-1.176-49.594 18.782-93.445 50.942-124.188l-38.074-11.379c-2.489-.742-5.175-.491-7.487.714l-90.368 47.114v-7.251c0-8.283-6.715-14.998-14.998-14.998h-31.019c-8.283 0-14.998 6.715-14.998 14.998v194.979c0 8.283 6.715 14.998 14.998 14.998h31.018c8.283 0 14.998-6.715 14.998-14.998v-19.998h139.986c22.206 0 39.996-18.226 39.996-39.996 0-22.053-17.943-39.995-39.996-39.995z"/><path d="m342.804 403.452-16.818 16.818v-69.829c0-8.283-6.715-14.998-14.998-14.998s-14.998 6.715-14.998 14.998v69.829l-16.819-16.819c-5.857-5.857-15.354-5.857-21.211 0-5.858 5.857-5.858 15.354 0 21.211l42.422 42.422c5.851 5.853 15.355 5.857 21.211 0l42.421-42.422c5.858-5.857 5.858-15.354 0-21.211-5.856-5.856-15.353-5.856-21.21.001z"/><path d="m500.88 338.362c-7.996-2.136-16.225 2.604-18.37 10.605l-6.156 22.975-34.915-60.475c-4.142-7.174-13.315-9.632-20.488-5.49-7.174 4.141-9.632 13.314-5.49 20.488l34.914 60.474-22.974-6.156c-7.989-2.136-16.224 2.603-18.369 10.606-2.143 8.001 2.604 16.225 10.606 18.369l57.95 15.528c7.998 2.139 16.223-2.598 18.369-10.605l15.528-57.949c2.144-8.002-2.604-16.226-10.605-18.37z"/><path d="m194.573 380.783-22.973 6.156 34.914-60.474c4.142-7.174 1.684-16.347-5.49-20.488-7.173-4.143-16.347-1.683-20.488 5.49l-34.914 60.473-6.156-22.974c-2.144-8-10.365-12.745-18.37-10.605-8.001 2.144-12.749 10.368-10.605 18.37l15.528 57.949c2.139 7.982 10.343 12.751 18.37 10.605l57.949-15.528c8.001-2.144 12.749-10.369 10.605-18.37-2.144-7.998-10.368-12.743-18.37-10.604z"/><path d="m310.988 40.524c-65.892 0-120.899 47.459-132.656 109.988h22.668c38.594 0 69.993 31.399 69.993 69.993 0 28.063-16.61 52.307-40.507 63.457 22.951 17.128 50.899 26.534 80.503 26.534 74.431 0 134.986-60.554 134.986-134.986s-60.555-134.986-134.987-134.986zm14.415 193.052v1.292c0 8.283-6.715 14.998-14.998 14.998s-14.998-6.715-14.998-14.998v-.12c-6.614-1.591-12.748-4.202-17.618-7.388-6.932-4.536-8.875-13.831-4.34-20.762 4.536-6.933 13.832-8.875 20.762-4.34 5.921 3.875 16.044 5.41 20.828 3.154 3.137-1.475 5.564-4.621 5.902-7.649.723-6.451-9.58-10.108-15.59-12.481-9.322-3.681-20.923-8.263-27.668-20.441-9.597-17.327-1.234-40.188 17.725-48.055v-.633c0-8.283 6.715-14.998 14.998-14.998 8.162 0 14.787 6.523 14.98 14.638 5.318 1.677 10.217 4.344 14.145 7.966 6.089 5.617 6.472 15.106.855 21.194-5.616 6.09-15.105 6.472-21.193.855-2.347-2.165-9.869-3.065-13.016-.949-2.068 1.391-2.967 4.159-2.253 5.449 3.088 5.575 19.518 7.561 31.902 17.211 25.385 19.783 16.744 55.551-10.423 66.057z"/></g></svg>